<mxfile host="app.diagrams.net" modified="2021-09-30T23:54:12.525Z" agent="5.0 (Windows NT 10.0; Win64; x64) AppleWebKit/537.36 (KHTML, like Gecko) Chrome/93.0.4577.82 Safari/537.36" etag="h74R2KKSO1NKRM3AH36Z" version="15.3.5" type="github">
  <diagram id="oiUhdM7AB1h_G04OSfMO" name="Page-1">
    <mxGraphModel dx="782" dy="457" grid="1" gridSize="10" guides="1" tooltips="1" connect="1" arrows="1" fold="1" page="1" pageScale="1" pageWidth="850" pageHeight="1100" math="0" shadow="0">
      <root>
        <mxCell id="0" />
        <mxCell id="1" parent="0" />
        <mxCell id="XtMqNRZea6jRWMrRlDbU-1" value="" style="rounded=1;whiteSpace=wrap;html=1;hachureGap=4;pointerEvents=0;fillColor=none;" vertex="1" parent="1">
          <mxGeometry x="90" y="70" width="390" height="380" as="geometry" />
        </mxCell>
        <mxCell id="XtMqNRZea6jRWMrRlDbU-2" value="" style="rounded=0;whiteSpace=wrap;html=1;hachureGap=4;pointerEvents=0;fillColor=#fff2cc;gradientColor=#ffd966;strokeColor=#d6b656;" vertex="1" parent="1">
          <mxGeometry x="130" y="180" width="120" height="60" as="geometry" />
        </mxCell>
        <mxCell id="XtMqNRZea6jRWMrRlDbU-3" value="" style="rounded=0;whiteSpace=wrap;html=1;hachureGap=4;pointerEvents=0;fillColor=#f8cecc;gradientColor=#ea6b66;strokeColor=#b85450;" vertex="1" parent="1">
          <mxGeometry x="130" y="90" width="120" height="60" as="geometry" />
        </mxCell>
        <mxCell id="XtMqNRZea6jRWMrRlDbU-4" value="" style="rounded=0;whiteSpace=wrap;html=1;hachureGap=4;pointerEvents=0;fillColor=#dae8fc;gradientColor=#7ea6e0;strokeColor=#6c8ebf;" vertex="1" parent="1">
          <mxGeometry x="130" y="270" width="120" height="60" as="geometry" />
        </mxCell>
        <mxCell id="XtMqNRZea6jRWMrRlDbU-5" value="" style="rounded=0;whiteSpace=wrap;html=1;hachureGap=4;pointerEvents=0;fillColor=#d5e8d4;gradientColor=#97d077;strokeColor=#82b366;" vertex="1" parent="1">
          <mxGeometry x="130" y="360" width="120" height="60" as="geometry" />
        </mxCell>
        <mxCell id="XtMqNRZea6jRWMrRlDbU-8" value="&lt;font style=&quot;font-size: 24px&quot;&gt;Power Sources&lt;/font&gt;" style="text;html=1;align=center;verticalAlign=middle;resizable=0;points=[];autosize=1;strokeColor=none;fillColor=none;" vertex="1" parent="1">
          <mxGeometry x="270" y="100" width="180" height="20" as="geometry" />
        </mxCell>
        <mxCell id="XtMqNRZea6jRWMrRlDbU-9" value="&lt;font style=&quot;font-size: 24px&quot;&gt;Microcontroller&lt;/font&gt;" style="text;html=1;align=center;verticalAlign=middle;resizable=0;points=[];autosize=1;strokeColor=none;fillColor=none;" vertex="1" parent="1">
          <mxGeometry x="275" y="380" width="170" height="20" as="geometry" />
        </mxCell>
        <mxCell id="XtMqNRZea6jRWMrRlDbU-10" value="&lt;font style=&quot;font-size: 24px&quot;&gt;Digital Connection&lt;/font&gt;" style="text;html=1;align=center;verticalAlign=middle;resizable=0;points=[];autosize=1;strokeColor=none;fillColor=none;" vertex="1" parent="1">
          <mxGeometry x="255" y="290" width="210" height="20" as="geometry" />
        </mxCell>
        <mxCell id="XtMqNRZea6jRWMrRlDbU-11" value="&lt;span style=&quot;font-size: 24px&quot;&gt;Analog Connection&lt;/span&gt;" style="text;html=1;align=center;verticalAlign=middle;resizable=0;points=[];autosize=1;strokeColor=none;fillColor=none;" vertex="1" parent="1">
          <mxGeometry x="250" y="200" width="220" height="20" as="geometry" />
        </mxCell>
      </root>
    </mxGraphModel>
  </diagram>
</mxfile>
